<?xml version="1.0" encoding="UTF-8"?>
<svg id="Layer_1" data-name="Layer 1" xmlns="http://www.w3.org/2000/svg" viewBox="0 0 379.36 418.24">
  <defs>
    <style>
      .cls-1 {
        fill: #c9c9c9;
      }

      .cls-2 {
        fill: none;
        stroke: #b7b7b7;
        stroke-miterlimit: 10;
        stroke-width: 55px;
      }
    </style>
  </defs>
  <path class="cls-1" d="m369.5,96.61s.03-.02.05-.03"/>
  <path class="cls-1" d="m321.92,212.85c-.42.19-.83.36-1.25.56v-2.11l1.06-5.92c.03,2.5.11,4.97.19,7.47Z"/>
  <polygon class="cls-1" points="320.66 360.25 187.41 418.24 58.46 359.87 58.6 295.68 187.41 352.3 320.68 295.05 320.66 360.25"/>
  <polygon class="cls-1" points="58.92 295.58 58.92 359.7 .24 333.65 .24 265.62 58.92 295.58"/>
  <polygon class="cls-1" points="320.68 295.05 320.66 360.25 379.36 333.65 379.36 265.62 320.68 295.05"/>
  <path class="cls-2" d="m86.87,130.2c0-56.72,45.98-102.7,102.7-102.7s102.7,45.98,102.7,102.7"/>
  <path class="cls-1" d="m336.1,123.46h42.74l.31,142.02s-58.6,29.45-58.71,29.45v-81.66"/>
  <path class="cls-1" d="m320.43,213.26c-80.44,35.87-172.5,35.12-256.41,1-1.08-.42-5.33-2.7-5.33-2.7v83.75c-.08,0-58.68-29.43-58.68-29.43L.28,123.88h42.74c33.87,28.98,77.08,46.35,121.87,51.96,61.24,4.64,124.82-12.67,171.19-52.35"/>
  <path class="cls-1" d="m344.81,216.86c-.42.19-.83.36-1.25.56v-2.11l1.06-5.92c.03,2.5.11,4.97.19,7.47Z"/>
</svg>