<?xml version="1.0" encoding="utf-8"?>
<!-- Generator: Adobe Illustrator 27.6.1, SVG Export Plug-In . SVG Version: 6.00 Build 0)  -->
<svg version="1.1" id="Layer_2_00000013160949837753039010000011074175468862929543_"
	 xmlns="http://www.w3.org/2000/svg" xmlns:xlink="http://www.w3.org/1999/xlink" x="0px" y="0px" viewBox="0 0 599 656"
	 style="enable-background:new 0 0 599 656;" xml:space="preserve">
<style type="text/css">
	.st0{fill:none;stroke:#080808;stroke-width:88;stroke-miterlimit:10;}
</style>
<g id="Layer_1-2">
	<path d="M489.9,326.2c-0.6,0.3-1.2,0.5-1.9,0.8v-3.1l1.6-8.8C489.7,318.8,489.8,322.5,489.9,326.2z"/>
	<path d="M488,323.9"/>
	<g>
		
			<image style="overflow:visible;opacity:0.75;" width="426" height="228" xlink:href="D8D80DB4F4BDF44D.png"  transform="matrix(1 0 0 1 86 -3)">
		</image>
		<g>
			<path class="st0" d="M138.9,202.8c0-84.7,68.7-153.4,153.4-153.4s153.4,68.7,153.4,153.4"/>
		</g>
	</g>
	<g>
		
			<image style="overflow:visible;opacity:0.75;" width="597" height="471" xlink:href="D8D80DB4F4BDF453.png"  transform="matrix(1 0 0 1 1 184)">
		</image>
		<g>
			<path d="M511,192.8C441.8,252,346.9,277.9,255.4,271c-66.9-8.4-131.4-34.3-182-77.6H9.6L9.2,405.4c0,0,0.1,0.1,0.4,0.2v101
				l86.9,38.6v0.5L289,632.9l199-86.6l87.7-39.7V192.8H511L511,192.8L511,192.8z M289,534.5L97.1,450.1v-0.4l-19.8-10.1
				c11.3,5.7,19.5,9.8,19.5,9.8V324.3c0,0,6.3,3.4,8,4c125.3,51,262.8,52.1,382.9-1.5l0.4,122.1L289,534.5L289,534.5L289,534.5z"/>
		</g>
	</g>
</g>
</svg>
