<?xml version="1.0" encoding="UTF-8"?>
<svg id="Layer_1" data-name="Layer 1" xmlns="http://www.w3.org/2000/svg" viewBox="0 0 170.81 191.43">
  <defs>
    <style>
      .cls-1 {
        fill: #eb46ca;
      }

      .cls-2 {
        fill: #69e2e3;
      }

      .cls-3 {
        fill: #306cde;
      }

      .cls-4 {
        fill: #403d4b;
      }
    </style>
  </defs>
  <g id="itZhOZ">
    <g>
      <path class="cls-1" d="m27.31,68.23c36.8,22.9,90.6,22.3,124.1-6.4,5-1.4,10.6-.1,15.8-.5,1,.2,3.1-.7,3.2.8,0,21,.1,42.1,0,63.1-9,3.3-17.7,8-26.7,11.3,0,0,0-.1-.1-.1.1-11.9,0-23.8,0-35.8-.1-1.3,0-2.2-1.4-1.1-36.4,15.4-79,15.6-115.1-.7.4-10.2,0-20.4.2-30.6Z"/>
      <path class="cls-2" d="m145.51,165.13c-19.1,9-39.6,17.3-59,26.3-19.6-6.6-39.2-17.2-58.7-25.4-.1.1-.3.2-.4.3-.7-.4-1.4-.5-1.8-1.1.4,0,.8.1,1.2.1.5-9.7-.3-19.6.3-29.2,18.8,9.1,38.3,17.1,57.4,25.9,19.9-6.6,39.7-17,59.3-25.6.3,9.7-.1,19.5.2,29.3l.1-.1c.3-.2.8-.4,1.4-.5Z"/>
      <path class="cls-4" d="m49.81,12.03c7.2-5.8,16.4-9.4,25-11.3.1,0,.3-.1.4-.1h0c6.3-.8,12.7-.8,19-.2,16.9,3.1,33.6,13.8,41.8,29.5q0,.1.1.2h0c.6.7.4,1.9,1.2,2.4,3,5.9,4.1,12.7,5.5,18.8-.3,1.7,1,5.7-.4,6.4-6.6,0-13.2.1-19.8,0-.2-2.4-.1-4.8-.7-7.2,0,.1,0,.3-.1.5-.1-.1-.2-.1-.2-.2-1-2.4-.2-5.6-2.2-7.5-.8-3.5-3.1-6.9-5.6-9.4-4.7-5.8-11.2-10.1-18.5-11.8.1-.1.1-.2.2-.4-13.6-3-29,.8-37.9,11.7-.3.3-.7.6-.9,1.1-.9.1-.6,1.3-1.4,1.9-2.5,3.3-5.1,7.7-5.6,12-.2,1.1-.4,2.2-.6,3.3-1,1.2-.1,4-.5,5.8-.4-.2-.7,0-.6.5-6.6,0-13.2.2-19.8-.1.1-2.1-.2-4.7,0-7,1-2.5.9-5.5,1.6-8.1,1.9-4.6,3.4-9.7,5.9-14.2.9-.4.7-1.5,1.4-2.1,1.2-.3,1-1.7,1.7-2.5.9-1.6,2.6-2.6,3.3-4.3,1.7-2,3.9-3.7,5.6-5.5.7-1,1.4-1.6,2.1-2.2Zm72,37.9h0c0-.1,0,0,0,0h0Z"/>
      <path class="cls-3" d="m27.01,136.13c-.1.2-.1.4-.2.6-8.2-4.6-17.6-7.9-26.3-12.1-.3-20.4.1-40.8-.2-61.1H.31l-.1-.1c0-.7-.2-1.5.3-2.1h0c5.7-.1,11.5,0,17.3,0h0c3.4,1.4,6.1,4.9,9.3,7,.2,22.5-.2,45.1-.1,67.8Z"/>
      <path class="cls-4" d="m.61,124.63c8.7,4.2,18,7.5,26.3,12.1,0,9.5.3,19.2-.1,28.7-8.6-2.7-16.7-7.3-25-10.9-1.2-.5-1.3-.6-1.3-1.9,0-9.4-.2-18.8.1-28Z"/>
      <path class="cls-4" d="m143.81,165.53c.1-9.7-.4-19.5.2-29.1,8.9-3.2,17.5-7.9,26.5-11.2-1.1,36.9,7.9,24.8-26.5,40.3h-.2Z"/>
      <path class="cls-2" d="m.61,124.63c-.3,9.3,0,18.6-.1,27.9-.3,1.9,1.4,1.7,2.5,2.7-1.2.1-3.2-.7-3-2.3v-15.7c.2-22.6.1-45.2.3-67.9.4,18.4-.1,36.9.3,55.3Z"/>
      <path class="cls-2" d="m34.41,30.53c-1.6,3.9-3.1,8-4.6,11.9.7-4.2,2.3-8.5,4.6-11.9Z"/>
      <path class="cls-2" d="m121.61,50.63q.1.1.2.2c0-.2,0-.3.1-.5.5,2.4.5,4.8.7,7.2-1.6-.6-.3-5.1-1-6.9Z"/>
      <path class="cls-2" d="m115.61,36.13c1.7,1.8,3.1,4,3.6,6.4-1.2-2.2-2.9-4.1-3.6-6.4Z"/>
      <path class="cls-2" d="m49.71,48.13c.3-2.7,1.5-6,3.3-8.2-1.6,2.5-1.8,5.6-3.3,8.2Z"/>
      <path class="cls-2" d="m119.41,43.13c1.3,1.1,1.6,3.3,1.6,4.9-.8.2-1.5-4-1.6-4.9Z"/>
      <path class="cls-2" d="m98.81,1.43c-1.3-.4-3.9.3-4.4-1,1.5.3,3.1.2,4.4,1Z"/>
      <path class="cls-2" d="m28.11,52.53c-.1,1.7.2,3.5.1,5-1,.3-.3-4.3-.1-5Z"/>
      <path class="cls-2" d="m142.81,51.23c-.8-.9-.4-2.6-.8-3.7,1.1.8.6,2.4.8,3.7Z"/>
      <path class="cls-2" d="m92.91,21.03c.8.1,1.7.3,2.6.4-.1.2-.1.3-.2.4-.9-.1-1.6-.2-2.5-.4,0-.1,0-.2.1-.4Z"/>
      <path class="cls-2" d="m113.81,33.73c.9.3,1.3,1.3,1.6,2.1-1-.3-1.3-1.2-1.6-2.1Z"/>
      <path class="cls-2" d="m106.21,26.83c1.3.6,2.7,1.7,3.5,2.8-1.3-.7-2.5-1.7-3.5-2.8Z"/>
      <path class="cls-2" d="m53.71,38.53c.6-.7.8-2,1.6-2.4-.5.8-.7,1.9-1.6,2.4Z"/>
      <path class="cls-2" d="m139.61,37.73c-.8-.9-.9-2.2-1.3-3.2.6,1,1.2,2,1.3,3.2Z"/>
      <path class="cls-2" d="m76.11,21.43c.6-.1,1.2-.2,1.7-.3,0,.1.1.3.1.5-.7.1-1.4.1-2.1.2.1-.1.2-.3.3-.4Z"/>
      <path class="cls-2" d="m74.91.73c-.5.8-1.9.4-2.7.7.8-.4,1.7-.8,2.7-.7Z"/>
      <path class="cls-2" d="m9.11,157.83c.8.3,1.5.6,2.3,1-.9,0-1.8-.1-2.3-1Z"/>
      <path class="cls-2" d="m38.21,24.43c-.2.7-.4,1.4-1.2,1.6,0-.8.6-1.2,1.2-1.6Z"/>
      <path class="cls-2" d="m141.11,42.73c-.6-1-.8-2.2-1.1-3.3.6,1,1.2,2.2,1.1,3.3Z"/>
      <path class="cls-2" d="m14.11,160.03c.9.5,1.9.7,2.6,1.4-.9-.4-2-.5-2.6-1.4Z"/>
      <path class="cls-2" d="m28.61,48.43c.1.7.1,1.5-.5,2.1.2-.7-.2-1.8.5-2.1Z"/>
      <path class="cls-2" d="m137.31,32.43c-.6-.2-.5-1-.8-1.5.6.3.9.8.8,1.5Z"/>
      <path class="cls-2" d="m42.11,19.33c-.1.8-.6,1.2-1.2,1.5.2-.7.5-1.3,1.2-1.5Z"/>
      <path class="cls-2" d="m48.71,53.13c.1-.6-.5-1.5.4-1.7-.2.5-.3,1.1-.4,1.7Z"/>
      <path class="cls-2" d="m40.31,21.63c-.5.6-1,1.3-1.5,1.9.3-.8.7-1.5,1.5-1.9Z"/>
      <path class="cls-3" d="m136.01,29.93c-.7-.3-.9-.9-1-1.5h.3c.3.4.5.9.7,1.5Z"/>
      <path class="cls-2" d="m44.21,17.03c-.5.5-1,1-1.4,1.5.3-.6.6-1.2,1.4-1.5Z"/>
      <path class="cls-2" d="m122.21,13.13c-.4-.3-.7-.6-1.1-.9.7,0,1,.2,1.1.9Z"/>
      <path class="cls-2" d="m135.31,28.33h-.3c-.1-.4-.3-.7-.4-1.1.5.2.8.6.7,1.1Z"/>
      <path class="cls-2" d="m57.61,33.23c0-.7.8-.9,1.2-1.3-.4.4-.8.8-1.2,1.3Z"/>
      <path class="cls-2" d="m45.71,15.53c-.2.6-.6,1-1.2,1.2.3-.5.5-1.1,1.2-1.2Z"/>
      <path class="cls-2" d="m112.41,32.23c.3.3.7.7,1,1-.5,0-.8-.3-1-1Z"/>
      <path class="cls-2" d="m36.51,27.03c-.1.5-.2,1-.8,1.2,0-.6.2-1,.8-1.2Z"/>
      <path class="cls-2" d="m49.81,12.03c-.4.3-.7.6-1.1.9.1-.6.6-.8,1.1-.9Z"/>
      <path class="cls-2" d="m56.01,35.13c0-.4,0-.9.7-.9-.3.3-.5.6-.7.9Z"/>
      <path class="cls-2" d="m47.91,57.63c0-.5.2-.6.6-.5.1.6-.1.7-.6.5Z"/>
      <path class="cls-2" d="m47.71,13.83c0,.5-.4.6-.8.7,0-.5.3-.7.8-.7Z"/>
      <path class="cls-3" d="m76.11,21.43c-.1.1-.1.3-.2.4-.1,0-.3,0-.4.1l-.1-.1c.2-.2.4-.3.7-.4Z"/>
      <path class="cls-2" d="m129.51,20.33c-.2-.2-.4-.4-.6-.7.5,0,.5.4.6.7Z"/>
      <path class="cls-2" d="m110.41,30.23c.2.2.4.3.5.5-.1-.1-.3-.3-.5-.5Z"/>
      <path class="cls-2" d="m121.31,49.73c.1.2.2.3.3.5-.2-.2-.2-.4-.3-.5Z"/>
      <path class="cls-2" d="m129.91,20.73c-.1-.1-.2-.2-.3-.3.1.1.2.2.3.3Z"/>
      <path class="cls-2" d="m59.71,30.83c.1-.1.2-.1.3-.2-.2.1-.3.1-.3.2Z"/>
      <path class="cls-2" d="m61.21,29.53c.1-.1.2-.2.3-.2-.2.1-.3.2-.3.2Z"/>
      <path class="cls-2" d="m18.81,61.33c-.1,0-.2-.1-.3-.1,0,.1.2.1.3.1Z"/>
      <path class="cls-2" d="m24.71,164.83c.1,0,.1.1.2.1q-.1,0-.2.1v-.2Z"/>
      <path class="cls-2" d="m24.21,164.63c.1,0,.1.1.2.1-.1,0-.1-.1-.2-.1Z"/>
      <path class="cls-3" d="m56.91,33.93l.1-.1s-.1,0-.1.1Z"/>
      <path class="cls-2" d="m75.41,21.83l.1.1h-.3c.1,0,.1-.1.2-.1Z"/>
      <path class="cls-2" d="m135.61,28.83c0-.1-.1-.1-.1-.2q0,.1.1.2Z"/>
      <path class="cls-2" d="m19.21,61.63l-.1-.1.1.1Z"/>
      <path class="cls-3" d="m143.91,136.43c-.1.1-.1.3-.2.4v-.3q.1-.1.2-.1Z"/>
      <path class="cls-3" d="m26.81,165.33c.1-.2.1-.3.2-.5-.1.2-.2.4-.2.5Z"/>
      <path class="cls-3" d="m143.81,165.53h.1l-.1.1v-.1Z"/>
      <path class="cls-2" d="m27.01,99.73s.1.1,0,.1q-.1,0,0-.1Z"/>
    </g>
  </g>
</svg>